<svg width="53" height="53" viewBox="0 0 53 53" fill="none" xmlns="http://www.w3.org/2000/svg">
<path d="M40.947 28.6482C40.6887 28.3895 40.382 28.1843 40.0444 28.0442C39.7067 27.9042 39.3448 27.8321 38.9793 27.8321C38.6137 27.8321 38.2518 27.9042 37.9141 28.0442C37.5765 28.1843 37.2698 28.3895 37.0115 28.6482L32.5751 33.0846C30.5183 32.4723 26.6802 31.0807 24.2477 28.6482C21.8152 26.2156 20.4236 22.3776 19.8113 20.3208L24.2477 15.8844C24.5064 15.6261 24.7116 15.3194 24.8516 14.9817C24.9917 14.6441 25.0637 14.2822 25.0637 13.9166C25.0637 13.5511 24.9917 13.1892 24.8516 12.8515C24.7116 12.5139 24.5064 12.2071 24.2477 11.9489L13.1149 0.816041C12.8566 0.557353 12.5499 0.352125 12.2122 0.2121C11.8746 0.0720743 11.5127 0 11.1471 0C10.7816 0 10.4197 0.0720743 10.082 0.2121C9.74436 0.352125 9.43764 0.557353 9.17939 0.816041L1.63132 8.36411C0.573701 9.42174 -0.0219072 10.8746 0.000358549 12.358C0.0643724 16.3213 1.11364 30.0871 11.9626 40.9361C22.8116 51.785 36.5773 52.8315 40.5434 52.8983H40.6213C42.0909 52.8983 43.4797 52.3194 44.5318 51.2673L52.0798 43.7193C52.3385 43.461 52.5438 43.1543 52.6838 42.8167C52.8238 42.479 52.8959 42.1171 52.8959 41.7515C52.8959 41.386 52.8238 41.0241 52.6838 40.6864C52.5438 40.3488 52.3385 40.0421 52.0798 39.7838L40.947 28.6482ZM40.5935 47.3291C37.1201 47.2706 25.2357 46.3383 15.8981 36.9978C6.52978 27.6295 5.62245 15.7034 5.56678 12.2996L11.1471 6.71924L18.3445 13.9166L14.7458 17.5153C14.4187 17.8422 14.1782 18.2455 14.046 18.6886C13.9138 19.1318 13.8942 19.6009 13.9888 20.0536C14.0556 20.3737 15.6893 27.9635 20.3095 32.5836C24.9296 37.2038 32.5194 38.8375 32.8395 38.9043C33.2919 39.0016 33.7615 38.9835 34.2051 38.8517C34.6486 38.7199 35.0519 38.4786 35.3778 38.1501L38.9793 34.5514L46.1766 41.7488L40.5935 47.3291Z" fill="#FDF7F7"/>
</svg>
